<?xml version="1.0" encoding="UTF-8" standalone="no"?>
<!DOCTYPE svg PUBLIC "-//W3C//DTD SVG 1.1//EN" "http://www.w3.org/Graphics/SVG/1.1/DTD/svg11.dtd">
<svg width="100%" height="100%" viewBox="0 0 2031 1664" version="1.1" xmlns="http://www.w3.org/2000/svg" xmlns:xlink="http://www.w3.org/1999/xlink" xml:space="preserve" xmlns:serif="http://www.serif.com/" style="fill-rule:evenodd;clip-rule:evenodd;stroke-linejoin:bevel;">
    <g id="_219064696" transform="matrix(2.618088,0,0,2.618088,-3859.572048,-460.231275)">
        <path d="M2015.74,308.003C2020.307,310.723 2018.601,320.467 2023.744,321.813C2029.543,323.331 2036.859,319.4 2040.122,314.381C2045.236,306.513 2037.603,290.076 2046.435,286.946C2063.31,280.963 2084.24,284.316 2099.778,293.199C2120.643,305.129 2133.688,327.352 2149.194,345.712C2151.327,348.237 2154.381,352.77 2152.146,355.2C2147.319,360.446 2136.468,357.852 2132.528,363.81C2129.545,368.32 2137.947,374.674 2135.931,379.696C2134.309,383.735 2125.314,380.888 2123.99,385.039C2122.814,388.723 2132.621,390.394 2131.339,394.05C2128.313,402.674 2121.785,411.036 2113.501,414.926C2105.448,418.705 2094.452,410.452 2086.785,414.978C2080.729,418.554 2085.032,430.292 2079.695,434.891C2076.607,437.55 2071.747,429.453 2068.031,431.135C2059.188,435.135 2050.773,441.738 2045.947,450.167C2043.651,454.176 2052.389,460.063 2049.418,463.605C2046.994,466.496 2043.918,456.789 2040.152,457.065C2036.948,457.3 2034.252,461.491 2034.246,464.707C2034.233,472.712 2034.641,482.14 2040.062,488.04C2043.295,491.561 2050.76,483.386 2054.34,486.553C2064.768,495.782 2071.543,531.992 2075.293,527.044C2077.055,524.72 2080.888,510.399 2088.421,508.548C2097.125,506.409 2108.999,504.984 2115.157,511.491C2124.867,521.752 2119.69,541.004 2129.112,551.544C2134.533,557.608 2147.358,548.778 2153.363,554.254C2177.71,576.454 2199.916,601.997 2215.992,630.763C2225.905,648.502 2220.568,671.935 2229.372,690.261C2212.781,685.067 2196.899,672.99 2179.596,674.69C2172.589,675.379 2181.192,690.929 2175.829,695.501C2156.805,711.722 2129.92,716.91 2110.956,733.219C2107.499,736.193 2121.971,739.677 2119.809,743.701C2115.928,750.918 2101.691,748.588 2098.597,756.184C2096.143,762.212 2113.347,770.294 2107.675,773.502C2100.059,777.809 2091.527,765.377 2082.781,765.121C2076.723,764.944 2072.025,773.218 2066.028,772.283C2062.525,771.737 2066.619,761.54 2063.11,762.035C2054.464,763.254 2049.555,776.447 2040.851,775.842C2034.249,775.384 2034.885,763.209 2029.279,759.681C2024.255,756.519 2016.754,760.365 2011.595,757.416C2005.31,753.825 2003.4,744.749 1997.054,741.279C1991.809,738.41 1983.758,743.512 1979.161,739.674C1974.27,735.589 1978.8,724.733 1973.341,721.45C1965.956,717.008 1953.715,726.571 1947.477,720.621C1938.858,712.401 1945.528,694.557 1936.734,686.521C1927.382,677.978 1912.07,673.645 1899.907,677.154C1883.621,681.853 1875.504,701.898 1859.96,708.673C1854.671,710.978 1847.159,706.42 1844.214,701.459C1840.633,695.425 1846.754,686.46 1843.187,680.424C1840.658,676.148 1833.882,674.714 1829.014,675.73C1822.369,677.116 1815.746,681.292 1812.006,686.958C1809.247,691.139 1815.027,698.293 1811.663,702.012C1805.499,708.819 1796.254,714.108 1787.065,714.495C1779.325,714.821 1774.093,704.57 1766.372,703.884C1756.146,702.974 1746.265,711.72 1736.15,709.954C1731.014,709.057 1732.013,694.884 1727.28,697.057C1708.373,705.74 1695.368,723.821 1678.746,736.333C1676.229,738.226 1672.919,741.469 1670.062,740.126C1665.852,738.147 1664.857,732.405 1662.254,728.545C1662.657,723.835 1667.352,717.072 1663.452,714.431C1652.421,706.964 1637.848,706.985 1625.022,703.341C1622.65,702.667 1616.716,703.66 1617.85,701.468C1620.309,696.717 1629.622,697.263 1630.859,692.065C1631.701,688.521 1620.96,690.153 1621.421,686.543C1621.947,682.419 1629.921,683.89 1632.333,680.518C1637.968,672.641 1645.467,663.806 1644.575,654.17C1643.9,646.879 1630.306,646.253 1628.525,639.15C1625.477,627 1633.871,613.945 1631.393,601.66C1629.879,594.161 1624.912,584.232 1617.306,583.554C1608.676,582.785 1604.623,597.634 1595.99,598.492C1588.126,599.273 1582.696,588.627 1574.839,587.764C1568.761,587.096 1563.777,594.581 1557.67,594.255C1552.869,593.998 1546.983,590.837 1545.682,586.205C1544.142,580.732 1553.311,575.028 1550.803,569.935C1548.125,564.496 1538.189,567.16 1534.092,562.682C1532.162,560.572 1539.119,555.92 1536.656,554.493C1527.53,549.203 1514.839,552.257 1506.038,546.427C1503.002,544.416 1510.153,538.937 1508.381,535.767C1505.727,531.017 1493.371,531.737 1494.907,526.518C1496.969,519.501 1510.051,522.068 1514.173,516.045C1516.556,512.564 1508.888,507.931 1510.339,503.969C1511.403,501.06 1517.575,504.345 1519.389,501.849C1522.284,497.868 1524.136,491.985 1522.409,487.38C1519.452,479.491 1508.619,475.849 1506.548,467.681C1504.91,461.22 1513.845,455.133 1512.544,448.602C1510.784,439.775 1497.835,434.704 1498.184,425.706C1498.45,418.786 1508.705,416.693 1513.966,412.19C1526.684,419.606 1537.399,434.856 1552.105,434.436C1562.848,434.131 1563.348,413.298 1573.719,410.507C1585.402,407.362 1597.937,414.166 1608.986,419.09C1615.117,421.822 1617.151,431.605 1623.76,432.811C1627.493,433.492 1626.381,420.178 1629.14,422.769C1634.55,427.845 1629.149,440.632 1635.741,444.049C1643.066,447.848 1655.425,445.64 1659.921,438.732C1665.111,430.754 1653.615,418.832 1657.736,410.262C1660.93,403.62 1672.794,406.506 1677.947,401.24C1680.245,398.892 1673.449,389.589 1676.082,391.551C1683.852,397.343 1685.599,410.805 1694.818,413.811C1703.785,416.735 1712.767,406.149 1722.19,406.615C1726.33,406.82 1726.663,415.374 1730.812,415.607C1738.668,416.049 1753.001,416.215 1753.271,408.365C1753.666,396.969 1737.237,391.702 1732.014,381.575C1730.128,377.914 1735.24,372.767 1733.099,369.254C1730.969,365.757 1721.232,368.728 1721.68,364.651C1722.794,354.57 1737.33,348.224 1736.546,338.124C1735.903,329.853 1720.809,329.072 1718.316,321.162C1716.801,316.356 1727.78,314.077 1727.38,309.059C1726.712,300.652 1716.416,295.055 1715.579,286.673C1714.135,272.202 1723.646,257.631 1720.839,243.372C1719.39,236.008 1707.941,234.755 1704.064,228.328C1701.162,223.515 1702.484,217.182 1701.686,211.611C1712.048,214.532 1723.866,208.901 1733.959,212.605C1752.595,219.446 1765.862,239.694 1785.523,242.404C1804.124,244.97 1823.664,217.582 1839.77,227.211C1858.776,238.576 1844.812,277.706 1863.751,289.185C1881.705,300.07 1906.576,271.554 1926.003,279.504C1940.012,285.237 1942.913,306.486 1943.032,321.627C1943.09,328.97 1925.873,328.841 1926.447,336.166C1926.988,343.056 1937.983,345.579 1944.895,345.657C1950.699,345.723 1956.71,341.51 1959.729,336.564C1963.814,329.869 1960.929,320.514 1964.49,313.538C1968.077,306.51 1972.598,296.874 1980.446,296.024C1992.797,294.686 2005.075,301.652 2015.74,308.003L2015.74,308.003Z" style="fill:none;stroke:rgb(2,43,58);stroke-width:7.94px;"/>
    </g>
</svg>
