<?xml version="1.0" encoding="UTF-8" standalone="no"?>
<!DOCTYPE svg PUBLIC "-//W3C//DTD SVG 1.1//EN" "http://www.w3.org/Graphics/SVG/1.1/DTD/svg11.dtd">
<svg width="100%" height="100%" viewBox="0 0 2532 843" version="1.1" xmlns="http://www.w3.org/2000/svg" xmlns:xlink="http://www.w3.org/1999/xlink" xml:space="preserve" xmlns:serif="http://www.serif.com/" style="fill-rule:evenodd;clip-rule:evenodd;stroke-linecap:round;stroke-linejoin:round;stroke-miterlimit:1.5;">
    <g transform="matrix(1,0,0,1,-8281.849316,0)">
        <g id="Artboard1" transform="matrix(0.721779,0,0,0.339919,8281.849316,0)">
            <rect x="0" y="0" width="3508" height="2480" style="fill:none;"/>
            <g transform="matrix(1.678515,0,0,2.965599,-1190.115324,-2418.07808)">
                <g transform="matrix(9.038601,0,0,10.862811,-11744.528061,-12989.967263)">
                    <rect x="1462.252" y="1290.848" width="6.55" height="36.9" style="fill:rgb(2,43,58);fill-rule:nonzero;"/>
                    <path d="M1477.577,1325.973C1479.66,1327.19 1481.918,1327.798 1484.352,1327.798C1486.818,1327.798 1489.085,1327.181 1491.152,1325.948C1493.218,1324.748 1494.86,1323.106 1496.077,1321.023C1497.293,1318.94 1497.902,1316.681 1497.902,1314.248C1497.902,1311.815 1497.302,1309.548 1496.102,1307.448C1494.868,1305.381 1493.202,1303.74 1491.102,1302.523C1489.002,1301.306 1486.752,1300.698 1484.352,1300.698C1481.918,1300.698 1479.668,1301.298 1477.602,1302.498C1475.502,1303.731 1473.843,1305.39 1472.627,1307.473C1471.41,1309.556 1470.802,1311.815 1470.802,1314.248C1470.802,1316.715 1471.418,1318.965 1472.652,1320.998C1473.852,1323.098 1475.493,1324.756 1477.577,1325.973ZM1488.127,1320.748C1486.977,1321.415 1485.718,1321.748 1484.352,1321.748C1483.018,1321.748 1481.768,1321.415 1480.602,1320.748C1479.435,1320.081 1478.518,1319.173 1477.852,1318.023C1477.185,1316.873 1476.852,1315.615 1476.852,1314.248C1476.852,1312.881 1477.185,1311.615 1477.852,1310.448C1478.518,1309.281 1479.427,1308.373 1480.577,1307.723C1481.727,1307.073 1482.985,1306.748 1484.352,1306.748C1485.718,1306.748 1486.985,1307.081 1488.152,1307.748C1489.318,1308.415 1490.227,1309.323 1490.877,1310.473C1491.527,1311.623 1491.852,1312.881 1491.852,1314.248C1491.852,1315.581 1491.518,1316.831 1490.852,1317.998C1490.185,1319.165 1489.277,1320.081 1488.127,1320.748Z" style="fill:rgb(2,43,58);fill-rule:nonzero;"/>
                    <path d="M1511.152,1313.348L1520.852,1300.848L1514.202,1300.848L1506.952,1310.448L1506.952,1291.198L1500.902,1291.198L1500.902,1327.848L1506.902,1327.848C1506.935,1327.781 1506.952,1327.631 1506.952,1327.398L1506.952,1319.398L1508.002,1317.198L1515.752,1327.848L1521.952,1327.848L1511.152,1313.348Z" style="fill:rgb(2,43,58);fill-rule:nonzero;"/>
                    <g transform="matrix(1,0,0,1,-4.109434,0)">
                        <path d="M1544.027,1310.273C1544.743,1311.49 1545.102,1312.798 1545.102,1314.198C1545.102,1315.631 1544.752,1316.948 1544.052,1318.148C1543.318,1319.348 1542.343,1320.306 1541.127,1321.023C1539.91,1321.74 1538.602,1322.098 1537.202,1322.098C1535.735,1322.098 1534.418,1321.731 1533.252,1320.998C1532.052,1320.298 1531.093,1319.34 1530.377,1318.123C1529.66,1316.906 1529.302,1315.598 1529.302,1314.198C1529.302,1312.731 1529.668,1311.415 1530.402,1310.248C1531.102,1309.048 1532.06,1308.09 1533.277,1307.373C1534.493,1306.656 1535.802,1306.298 1537.202,1306.298C1538.635,1306.298 1539.952,1306.648 1541.152,1307.348C1542.352,1308.081 1543.31,1309.056 1544.027,1310.273ZM1545.102,1325.198L1545.102,1327.598L1550.702,1327.598L1550.752,1313.798C1550.752,1311.431 1550.135,1309.231 1548.902,1307.198C1547.668,1305.198 1546.01,1303.606 1543.927,1302.423C1541.843,1301.24 1539.602,1300.648 1537.202,1300.648C1534.768,1300.648 1532.518,1301.248 1530.452,1302.448C1528.352,1303.681 1526.693,1305.34 1525.477,1307.423C1524.26,1309.506 1523.652,1311.765 1523.652,1314.198C1523.652,1316.665 1524.268,1318.915 1525.502,1320.948C1526.702,1323.048 1528.343,1324.706 1530.427,1325.923C1532.51,1327.14 1534.768,1327.748 1537.202,1327.748C1540.068,1327.748 1542.702,1326.898 1545.102,1325.198Z" style="fill:rgb(2,43,58);fill-rule:nonzero;"/>
                    </g>
                    <g transform="matrix(1,0,0,1,-4.109434,0)">
                        <rect x="1552.752" y="1290.848" width="6.55" height="36.9" style="fill:rgb(2,43,58);fill-rule:nonzero;"/>
                    </g>
                    <g transform="matrix(1,0,0,1,-4.109434,0)">
                        <path d="M1568.402,1327.898L1568.402,1300.748L1561.852,1300.748L1561.852,1327.898L1568.402,1327.898ZM1562.377,1297.323C1563.093,1298.04 1563.968,1298.398 1565.002,1298.398C1566.035,1298.398 1566.91,1298.04 1567.627,1297.323C1568.343,1296.606 1568.702,1295.731 1568.702,1294.698C1568.702,1293.698 1568.343,1292.84 1567.627,1292.123C1566.91,1291.406 1566.035,1291.048 1565.002,1291.048C1563.968,1291.048 1563.093,1291.406 1562.377,1292.123C1561.66,1292.84 1561.302,1293.698 1561.302,1294.698C1561.302,1295.731 1561.66,1296.606 1562.377,1297.323Z" style="fill:rgb(2,43,58);fill-rule:nonzero;"/>
                    </g>
                    <g transform="matrix(1,0,0,1,-4.109434,0)">
                        <path d="M1576.977,1325.973C1579.06,1327.19 1581.318,1327.798 1583.752,1327.798C1586.218,1327.798 1588.485,1327.181 1590.552,1325.948C1592.618,1324.748 1594.26,1323.106 1595.477,1321.023C1596.693,1318.94 1597.302,1316.681 1597.302,1314.248C1597.302,1311.815 1596.702,1309.548 1595.502,1307.448C1594.268,1305.381 1592.602,1303.74 1590.502,1302.523C1588.402,1301.306 1586.152,1300.698 1583.752,1300.698C1581.318,1300.698 1579.068,1301.298 1577.002,1302.498C1574.902,1303.731 1573.243,1305.39 1572.027,1307.473C1570.81,1309.556 1570.202,1311.815 1570.202,1314.248C1570.202,1316.715 1570.818,1318.965 1572.052,1320.998C1573.252,1323.098 1574.893,1324.756 1576.977,1325.973ZM1587.527,1320.748C1586.377,1321.415 1585.118,1321.748 1583.752,1321.748C1582.418,1321.748 1581.168,1321.415 1580.002,1320.748C1578.835,1320.081 1577.918,1319.173 1577.252,1318.023C1576.585,1316.873 1576.252,1315.615 1576.252,1314.248C1576.252,1312.881 1576.585,1311.615 1577.252,1310.448C1577.918,1309.281 1578.827,1308.373 1579.977,1307.723C1581.127,1307.073 1582.385,1306.748 1583.752,1306.748C1585.118,1306.748 1586.385,1307.081 1587.552,1307.748C1588.718,1308.415 1589.627,1309.323 1590.277,1310.473C1590.927,1311.623 1591.252,1312.881 1591.252,1314.248C1591.252,1315.581 1590.918,1316.831 1590.252,1317.998C1589.585,1319.165 1588.677,1320.081 1587.527,1320.748Z" style="fill:rgb(2,43,58);fill-rule:nonzero;"/>
                    </g>
                </g>
                <g transform="matrix(1.001075,0,0,1.203116,-639.665897,181.178167)">
                    <g>
                        <g transform="matrix(1,0,0,1,-4358.444111,45.666667)">
                            <path d="M6323.388,966L5927.903,737.667" style="fill:none;stroke:rgb(2,43,58);stroke-width:31.25px;"/>
                        </g>
                        <g transform="matrix(1,0,0,1,-4279.347124,0)">
                            <path d="M6244.291,920.333C6006.828,920.176 5927.903,737.667 5927.903,737.667" style="fill:none;stroke:rgb(2,43,58);stroke-width:31.25px;"/>
                        </g>
                    </g>
                    <g transform="matrix(0.5,-0.866025,0.866025,0.5,27.245898,1979.191279)">
                        <g transform="matrix(1,0,0,1,-4358.444111,45.666667)">
                            <path d="M6323.388,966L5927.903,737.667" style="fill:none;stroke:rgb(2,43,58);stroke-width:31.25px;"/>
                        </g>
                        <g transform="matrix(1,0,0,1,-4279.347124,0)">
                            <path d="M6244.291,920.333C6006.828,920.176 5927.903,737.667 5927.903,737.667" style="fill:none;stroke:rgb(2,43,58);stroke-width:31.25px;"/>
                        </g>
                    </g>
                </g>
            </g>
        </g>
    </g>
</svg>
